<?xml version="1.0" encoding="UTF-8" standalone="no"?>
<!DOCTYPE svg PUBLIC "-//W3C//DTD SVG 1.1//EN" "http://www.w3.org/Graphics/SVG/1.1/DTD/svg11.dtd">
<!-- 由 Microsoft Visio, SVG Export 生成 未命名文件.svg Page-1 -->
<svg xmlns="http://www.w3.org/2000/svg" xmlns:xlink="http://www.w3.org/1999/xlink" xmlns:ev="http://www.w3.org/2001/xml-events"
		xmlns:v="http://schemas.microsoft.com/visio/2003/SVGExtensions/" width="17.6575in" height="10.0787in"
		viewBox="0 0 1271.34 725.669" xml:space="preserve" color-interpolation-filters="sRGB" class="st7">
	<v:documentProperties v:langID="1033" v:metric="true" v:viewMarkup="false">
		<v:userDefs>
			<v:ud v:nameU="msvNoAutoConnect" v:val="VT0(1):26"/>
		</v:userDefs>
	</v:documentProperties>

	<style type="text/css">
	<![CDATA[
		.st1 {fill:#ec7270;stroke:#000000;stroke-linecap:round;stroke-linejoin:round;stroke-width:1.06299}
		.st2 {fill:#fadcdb;stroke:#000000;stroke-linecap:round;stroke-linejoin:round;stroke-width:1.06299}
		.st3 {fill:#000000;font-family:Microsoft Sans Serif;font-size:0.708664em}
		.st4 {fill:none;stroke:none;stroke-linecap:round;stroke-linejoin:round;stroke-width:0.75;visibility:hidden}
		.st5 {fill:#000000;font-family:微软雅黑;font-size:0.708664em}
		.st6 {stroke:#000000;stroke-linecap:round;stroke-linejoin:round;stroke-width:1.06299}
		.st7 {fill:none;fill-rule:evenodd;font-size:12px;overflow:visible;stroke-linecap:square;stroke-miterlimit:3}
	]]>
	</style>

	<g v:mID="0" v:index="1" v:groupContext="foregroundPage">
		<title>Page-1</title>
		<v:pageProperties v:drawingScale="1" v:pageScale="1" v:drawingUnits="24" v:shadowOffsetX="8.50394"
				v:shadowOffsetY="-8.50394"/>
		<v:layer v:name="Background" v:index="0"/>
		<g id="shape1-1" v:mID="1" v:groupContext="shape" v:layerMember="0" transform="translate(205.228,-640.488)">
			<title>矩形</title>
			<rect x="0" y="687.402" width="168.661" height="38.2677" class="st1"/>
		</g>
		<g id="shape2-3" v:mID="2" v:groupContext="shape" v:layerMember="0" transform="translate(291.584,-647.372)">
			<title>Shape.2</title>
			<desc>W0</desc>
			<v:textBlock v:margins="rect(0,0,0,0)"/>
			<v:textRect cx="34.0157" cy="712.913" width="53.86" height="25.5118"/>
			<rect x="0" y="700.157" width="68.0315" height="25.5118" class="st2"/>
			<text x="27.64" y="715.46" class="st3" v:langID="2052"><v:paragraph v:horizAlign="1"/><v:tabList/>W0</text>		</g>
		<g id="shape3-6" v:mID="3" v:groupContext="shape" v:layerMember="0" transform="translate(205.228,-592.063)">
			<title>Shape.3</title>
			<rect x="0" y="687.402" width="168.661" height="38.2677" class="st1"/>
		</g>
		<g id="shape4-8" v:mID="4" v:groupContext="shape" v:layerMember="0" transform="translate(291.584,-599.538)">
			<title>Shape.4</title>
			<desc>W1</desc>
			<v:textBlock v:margins="rect(0,0,0,0)"/>
			<v:textRect cx="34.0157" cy="712.913" width="53.86" height="25.5118"/>
			<rect x="0" y="700.157" width="68.0315" height="25.5118" class="st2"/>
			<text x="27.64" y="715.46" class="st3" v:langID="2052"><v:paragraph v:horizAlign="1"/><v:tabList/>W1</text>		</g>
		<g id="shape5-11" v:mID="5" v:groupContext="shape" v:layerMember="0" transform="translate(205.228,-530.941)">
			<title>Shape.5</title>
			<rect x="0" y="687.402" width="168.661" height="38.2677" class="st1"/>
		</g>
		<g id="shape6-13" v:mID="6" v:groupContext="shape" v:layerMember="0" transform="translate(291.584,-537.825)">
			<title>Shape.6</title>
			<desc>W7</desc>
			<v:textBlock v:margins="rect(0,0,0,0)"/>
			<v:textRect cx="34.0157" cy="712.913" width="53.86" height="25.5118"/>
			<rect x="0" y="700.157" width="68.0315" height="25.5118" class="st2"/>
			<text x="27.64" y="715.46" class="st3" v:langID="2052"><v:paragraph v:horizAlign="1"/><v:tabList/>W7</text>		</g>
		<g id="shape7-16" v:mID="7" v:groupContext="shape" v:layerMember="0" transform="translate(205.228,-482.516)">
			<title>Shape.7</title>
			<rect x="0" y="687.402" width="168.661" height="38.2677" class="st1"/>
		</g>
		<g id="shape8-18" v:mID="8" v:groupContext="shape" v:layerMember="0" transform="translate(291.584,-488.809)">
			<title>Shape.8</title>
			<desc>W8</desc>
			<v:textBlock v:margins="rect(0,0,0,0)"/>
			<v:textRect cx="34.0157" cy="712.913" width="53.86" height="25.5118"/>
			<rect x="0" y="700.157" width="68.0315" height="25.5118" class="st2"/>
			<text x="27.64" y="715.46" class="st3" v:langID="2052"><v:paragraph v:horizAlign="1"/><v:tabList/>W8</text>		</g>
		<g id="shape9-21" v:mID="9" v:groupContext="shape" v:layerMember="0" transform="translate(205.228,-434.091)">
			<title>Shape.9</title>
			<rect x="0" y="687.402" width="168.661" height="38.2677" class="st1"/>
		</g>
		<g id="shape10-23" v:mID="10" v:groupContext="shape" v:layerMember="0" transform="translate(291.584,-440.975)">
			<title>Shape.10</title>
			<desc>W9</desc>
			<v:textBlock v:margins="rect(0,0,0,0)"/>
			<v:textRect cx="34.0157" cy="712.913" width="53.86" height="25.5118"/>
			<rect x="0" y="700.157" width="68.0315" height="25.5118" class="st2"/>
			<text x="27.64" y="715.46" class="st3" v:langID="2052"><v:paragraph v:horizAlign="1"/><v:tabList/>W9</text>		</g>
		<g id="shape11-26" v:mID="11" v:groupContext="shape" v:layerMember="0" transform="translate(205.228,-372.8)">
			<title>Shape.11</title>
			<rect x="0" y="687.402" width="168.661" height="38.2677" class="st1"/>
		</g>
		<g id="shape12-28" v:mID="12" v:groupContext="shape" v:layerMember="0" transform="translate(291.584,-379.684)">
			<title>Shape.12</title>
			<desc>W15</desc>
			<v:textBlock v:margins="rect(0,0,0,0)"/>
			<v:textRect cx="34.0157" cy="712.913" width="53.86" height="25.5118"/>
			<rect x="0" y="700.157" width="68.0315" height="25.5118" class="st2"/>
			<text x="25.27" y="715.46" class="st3" v:langID="2052"><v:paragraph v:horizAlign="1"/><v:tabList/>W15</text>		</g>
		<g id="shape13-31" v:mID="13" v:groupContext="shape" v:layerMember="0" transform="translate(205.228,-324.375)">
			<title>Shape.13</title>
			<rect x="0" y="687.402" width="168.661" height="38.2677" class="st1"/>
		</g>
		<g id="shape14-33" v:mID="14" v:groupContext="shape" v:layerMember="0" transform="translate(291.584,-330.668)">
			<title>Shape.14</title>
			<desc>W16</desc>
			<v:textBlock v:margins="rect(0,0,0,0)"/>
			<v:textRect cx="34.0157" cy="712.913" width="53.86" height="25.5118"/>
			<rect x="0" y="700.157" width="68.0315" height="25.5118" class="st2"/>
			<text x="25.27" y="715.46" class="st3" v:langID="2052"><v:paragraph v:horizAlign="1"/><v:tabList/>W16</text>		</g>
		<g id="shape15-36" v:mID="15" v:groupContext="shape" v:layerMember="0" transform="translate(205.228,-275.949)">
			<title>Shape.15</title>
			<rect x="0" y="687.402" width="168.661" height="38.2677" class="st1"/>
		</g>
		<g id="shape16-38" v:mID="16" v:groupContext="shape" v:layerMember="0" transform="translate(291.584,-282.834)">
			<title>Shape.16</title>
			<desc>W17</desc>
			<v:textBlock v:margins="rect(0,0,0,0)"/>
			<v:textRect cx="34.0157" cy="712.913" width="53.86" height="25.5118"/>
			<rect x="0" y="700.157" width="68.0315" height="25.5118" class="st2"/>
			<text x="25.27" y="715.46" class="st3" v:langID="2052"><v:paragraph v:horizAlign="1"/><v:tabList/>W17</text>		</g>
		<g id="shape17-41" v:mID="17" v:groupContext="shape" v:layerMember="0" transform="translate(205.228,-227.524)">
			<title>Shape.17</title>
			<rect x="0" y="687.402" width="168.661" height="38.2677" class="st1"/>
		</g>
		<g id="shape18-43" v:mID="18" v:groupContext="shape" v:layerMember="0" transform="translate(291.584,-233.818)">
			<title>Shape.18</title>
			<desc>W18</desc>
			<v:textBlock v:margins="rect(0,0,0,0)"/>
			<v:textRect cx="34.0157" cy="712.913" width="53.86" height="25.5118"/>
			<rect x="0" y="700.157" width="68.0315" height="25.5118" class="st2"/>
			<text x="25.27" y="715.46" class="st3" v:langID="2052"><v:paragraph v:horizAlign="1"/><v:tabList/>W18</text>		</g>
		<g id="shape19-46" v:mID="19" v:groupContext="shape" v:layerMember="0" transform="translate(205.228,-179.099)">
			<title>Shape.19</title>
			<rect x="0" y="687.402" width="168.661" height="38.2677" class="st1"/>
		</g>
		<g id="shape20-48" v:mID="20" v:groupContext="shape" v:layerMember="0" transform="translate(291.584,-185.983)">
			<title>Shape.20</title>
			<desc>W19</desc>
			<v:textBlock v:margins="rect(0,0,0,0)"/>
			<v:textRect cx="34.0157" cy="712.913" width="53.86" height="25.5118"/>
			<rect x="0" y="700.157" width="68.0315" height="25.5118" class="st2"/>
			<text x="25.27" y="715.46" class="st3" v:langID="2052"><v:paragraph v:horizAlign="1"/><v:tabList/>W19</text>		</g>
		<g id="shape21-51" v:mID="21" v:groupContext="shape" v:layerMember="0" transform="translate(205.228,-117.808)">
			<title>Shape.21</title>
			<rect x="0" y="687.402" width="168.661" height="38.2677" class="st1"/>
		</g>
		<g id="shape22-53" v:mID="22" v:groupContext="shape" v:layerMember="0" transform="translate(291.584,-124.692)">
			<title>Shape.22</title>
			<desc>W28</desc>
			<v:textBlock v:margins="rect(0,0,0,0)"/>
			<v:textRect cx="34.0157" cy="712.913" width="53.86" height="25.5118"/>
			<rect x="0" y="700.157" width="68.0315" height="25.5118" class="st2"/>
			<text x="25.27" y="715.46" class="st3" v:langID="2052"><v:paragraph v:horizAlign="1"/><v:tabList/>W28</text>		</g>
		<g id="shape23-56" v:mID="23" v:groupContext="shape" v:layerMember="0" transform="translate(205.228,-69.383)">
			<title>Shape.23</title>
			<rect x="0" y="687.402" width="168.661" height="38.2677" class="st1"/>
		</g>
		<g id="shape24-58" v:mID="24" v:groupContext="shape" v:layerMember="0" transform="translate(291.584,-75.6766)">
			<title>Shape.24</title>
			<desc>W29</desc>
			<v:textBlock v:margins="rect(0,0,0,0)"/>
			<v:textRect cx="34.0157" cy="712.913" width="53.86" height="25.5118"/>
			<rect x="0" y="700.157" width="68.0315" height="25.5118" class="st2"/>
			<text x="25.27" y="715.46" class="st3" v:langID="2052"><v:paragraph v:horizAlign="1"/><v:tabList/>W29</text>		</g>
		<g id="shape25-61" v:mID="25" v:groupContext="shape" v:layerMember="0" transform="translate(205.228,-20.9578)">
			<title>Shape.25</title>
			<rect x="0" y="687.402" width="168.661" height="38.2677" class="st1"/>
		</g>
		<g id="shape26-63" v:mID="26" v:groupContext="shape" v:layerMember="0" transform="translate(291.584,-27.842)">
			<title>Shape.26</title>
			<desc>W30</desc>
			<v:textBlock v:margins="rect(0,0,0,0)"/>
			<v:textRect cx="34.0157" cy="712.913" width="53.86" height="25.5118"/>
			<rect x="0" y="700.157" width="68.0315" height="25.5118" class="st2"/>
			<text x="25.27" y="715.46" class="st3" v:langID="2052"><v:paragraph v:horizAlign="1"/><v:tabList/>W30</text>		</g>
		<g id="shape27-66" v:mID="27" v:groupContext="shape" v:layerMember="0" transform="translate(173.976,-676.217)">
			<title>文本</title>
			<desc>64</desc>
			<v:textBlock v:margins="rect(0,0,0,0)"/>
			<v:textRect cx="35.4331" cy="711.496" width="70.87" height="28.3465"/>
			<rect x="0" y="697.323" width="70.8661" height="28.3465" class="st4"/>
			<text x="30.7" y="714.05" class="st3" v:langID="2052"><v:paragraph v:horizAlign="1"/><v:tabList/>64</text>		</g>
		<g id="shape28-69" v:mID="28" v:groupContext="shape" v:layerMember="0" transform="translate(254.126,-676.217)">
			<title>Shape.28</title>
			<desc>32</desc>
			<v:textBlock v:margins="rect(0,0,0,0)"/>
			<v:textRect cx="35.4331" cy="711.496" width="70.87" height="28.3465"/>
			<rect x="0" y="697.323" width="70.8661" height="28.3465" class="st4"/>
			<text x="30.7" y="714.05" class="st3" v:langID="2052"><v:paragraph v:horizAlign="1"/><v:tabList/>32</text>		</g>
		<g id="shape29-72" v:mID="29" v:groupContext="shape" v:layerMember="0" transform="translate(334.276,-676.217)">
			<title>Shape.29</title>
			<desc>0</desc>
			<v:textBlock v:margins="rect(0,0,0,0)"/>
			<v:textRect cx="35.4331" cy="711.496" width="70.87" height="28.3465"/>
			<rect x="0" y="697.323" width="70.8661" height="28.3465" class="st4"/>
			<text x="33.07" y="714.05" class="st3" v:langID="2052"><v:paragraph v:horizAlign="1"/><v:tabList/>0</text>		</g>
		<g id="shape30-75" v:mID="30" v:groupContext="shape" v:layerMember="0" transform="translate(1008.14,266.575) rotate(90)">
			<title>Shape.30</title>
			<desc>...</desc>
			<v:textBlock v:margins="rect(0,0,0,0)"/>
			<v:textRect cx="35.4331" cy="711.496" width="70.87" height="28.3465"/>
			<rect x="0" y="697.323" width="70.8661" height="28.3465" class="st4"/>
			<text x="31.89" y="714.05" class="st3" v:langID="2052"><v:paragraph v:horizAlign="1"/><v:tabList/>...</text>		</g>
		<g id="shape31-78" v:mID="31" v:groupContext="shape" v:layerMember="0" transform="translate(1005.78,521.102) rotate(90)">
			<title>Shape.31</title>
			<desc>...</desc>
			<v:textBlock v:margins="rect(0,0,0,0)"/>
			<v:textRect cx="35.4331" cy="711.496" width="70.87" height="28.3465"/>
			<rect x="0" y="697.323" width="70.8661" height="28.3465" class="st4"/>
			<text x="31.89" y="714.05" class="st3" v:langID="2052"><v:paragraph v:horizAlign="1"/><v:tabList/>...</text>		</g>
		<g id="shape32-81" v:mID="32" v:groupContext="shape" v:layerMember="0" transform="translate(184.606,-645.955)">
			<title>Shape.32</title>
			<desc>X0</desc>
			<v:textBlock v:margins="rect(0,0,0,0)"/>
			<v:textRect cx="35.4331" cy="711.496" width="70.87" height="28.3465"/>
			<rect x="0" y="697.323" width="70.8661" height="28.3465" class="st4"/>
			<text x="30.23" y="714.05" class="st3" v:langID="2052"><v:paragraph v:horizAlign="1"/><v:tabList/>X0</text>		</g>
		<g id="shape33-84" v:mID="33" v:groupContext="shape" v:layerMember="0" transform="translate(183.26,-598.12)">
			<title>Shape.33</title>
			<desc>X1</desc>
			<v:textBlock v:margins="rect(0,0,0,0)"/>
			<v:textRect cx="35.4331" cy="711.496" width="70.87" height="28.3465"/>
			<rect x="0" y="697.323" width="70.8661" height="28.3465" class="st4"/>
			<text x="30.23" y="714.05" class="st3" v:langID="2052"><v:paragraph v:horizAlign="1"/><v:tabList/>X1</text>		</g>
		<g id="shape34-87" v:mID="34" v:groupContext="shape" v:layerMember="0" transform="translate(183.26,-536.408)">
			<title>Shape.34</title>
			<desc>X7</desc>
			<v:textBlock v:margins="rect(0,0,0,0)"/>
			<v:textRect cx="35.4331" cy="711.496" width="70.87" height="28.3465"/>
			<rect x="0" y="697.323" width="70.8661" height="28.3465" class="st4"/>
			<text x="30.23" y="714.05" class="st3" v:langID="2052"><v:paragraph v:horizAlign="1"/><v:tabList/>X7</text>		</g>
		<g id="shape35-90" v:mID="35" v:groupContext="shape" v:layerMember="0" transform="translate(183.26,-487.392)">
			<title>Shape.35</title>
			<desc>X8</desc>
			<v:textBlock v:margins="rect(0,0,0,0)"/>
			<v:textRect cx="35.4331" cy="711.496" width="70.87" height="28.3465"/>
			<rect x="0" y="697.323" width="70.8661" height="28.3465" class="st4"/>
			<text x="30.23" y="714.05" class="st3" v:langID="2052"><v:paragraph v:horizAlign="1"/><v:tabList/>X8</text>		</g>
		<g id="shape36-93" v:mID="36" v:groupContext="shape" v:layerMember="0" transform="translate(183.26,-439.557)">
			<title>Shape.36</title>
			<desc>X9</desc>
			<v:textBlock v:margins="rect(0,0,0,0)"/>
			<v:textRect cx="35.4331" cy="711.496" width="70.87" height="28.3465"/>
			<rect x="0" y="697.323" width="70.8661" height="28.3465" class="st4"/>
			<text x="30.23" y="714.05" class="st3" v:langID="2052"><v:paragraph v:horizAlign="1"/><v:tabList/>X9</text>		</g>
		<g id="shape37-96" v:mID="37" v:groupContext="shape" v:layerMember="0" transform="translate(183.26,-378.267)">
			<title>Shape.37</title>
			<desc>X15</desc>
			<v:textBlock v:margins="rect(0,0,0,0)"/>
			<v:textRect cx="35.4331" cy="711.496" width="70.87" height="28.3465"/>
			<rect x="0" y="697.323" width="70.8661" height="28.3465" class="st4"/>
			<text x="27.87" y="714.05" class="st3" v:langID="2052"><v:paragraph v:horizAlign="1"/><v:tabList/>X15</text>		</g>
		<g id="shape38-99" v:mID="38" v:groupContext="shape" v:layerMember="0" transform="translate(183.26,-281.416)">
			<title>Shape.38</title>
			<desc>X17</desc>
			<v:textBlock v:margins="rect(0,0,0,0)"/>
			<v:textRect cx="35.4331" cy="711.496" width="70.87" height="28.3465"/>
			<rect x="0" y="697.323" width="70.8661" height="28.3465" class="st4"/>
			<text x="27.87" y="714.05" class="st3" v:langID="2052"><v:paragraph v:horizAlign="1"/><v:tabList/>X17</text>		</g>
		<g id="shape39-102" v:mID="39" v:groupContext="shape" v:layerMember="0" transform="translate(183.26,-329.251)">
			<title>Shape.39</title>
			<desc>X16</desc>
			<v:textBlock v:margins="rect(0,0,0,0)"/>
			<v:textRect cx="35.4331" cy="711.496" width="70.87" height="28.3465"/>
			<rect x="0" y="697.323" width="70.8661" height="28.3465" class="st4"/>
			<text x="27.87" y="714.05" class="st3" v:langID="2052"><v:paragraph v:horizAlign="1"/><v:tabList/>X16</text>		</g>
		<g id="shape40-105" v:mID="40" v:groupContext="shape" v:layerMember="0" transform="translate(184.606,-232.4)">
			<title>Shape.40</title>
			<desc>X18</desc>
			<v:textBlock v:margins="rect(0,0,0,0)"/>
			<v:textRect cx="35.4331" cy="711.496" width="70.87" height="28.3465"/>
			<rect x="0" y="697.323" width="70.8661" height="28.3465" class="st4"/>
			<text x="27.87" y="714.05" class="st3" v:langID="2052"><v:paragraph v:horizAlign="1"/><v:tabList/>X18</text>		</g>
		<g id="shape41-108" v:mID="41" v:groupContext="shape" v:layerMember="0" transform="translate(184.606,-184.566)">
			<title>Shape.41</title>
			<desc>X19</desc>
			<v:textBlock v:margins="rect(0,0,0,0)"/>
			<v:textRect cx="35.4331" cy="711.496" width="70.87" height="28.3465"/>
			<rect x="0" y="697.323" width="70.8661" height="28.3465" class="st4"/>
			<text x="27.87" y="714.05" class="st3" v:langID="2052"><v:paragraph v:horizAlign="1"/><v:tabList/>X19</text>		</g>
		<g id="shape42-111" v:mID="42" v:groupContext="shape" v:layerMember="0" transform="translate(184.606,-123.275)">
			<title>Shape.42</title>
			<desc>X28</desc>
			<v:textBlock v:margins="rect(0,0,0,0)"/>
			<v:textRect cx="35.4331" cy="711.496" width="70.87" height="28.3465"/>
			<rect x="0" y="697.323" width="70.8661" height="28.3465" class="st4"/>
			<text x="27.87" y="714.05" class="st3" v:langID="2052"><v:paragraph v:horizAlign="1"/><v:tabList/>X28</text>		</g>
		<g id="shape43-114" v:mID="43" v:groupContext="shape" v:layerMember="0" transform="translate(184.606,-74.2593)">
			<title>Shape.43</title>
			<desc>X29</desc>
			<v:textBlock v:margins="rect(0,0,0,0)"/>
			<v:textRect cx="35.4331" cy="711.496" width="70.87" height="28.3465"/>
			<rect x="0" y="697.323" width="70.8661" height="28.3465" class="st4"/>
			<text x="27.87" y="714.05" class="st3" v:langID="2052"><v:paragraph v:horizAlign="1"/><v:tabList/>X29</text>		</g>
		<g id="shape44-117" v:mID="44" v:groupContext="shape" v:layerMember="0" transform="translate(184.606,-26.4246)">
			<title>Shape.44</title>
			<desc>X30</desc>
			<v:textBlock v:margins="rect(0,0,0,0)"/>
			<v:textRect cx="35.4331" cy="711.496" width="70.87" height="28.3465"/>
			<rect x="0" y="697.323" width="70.8661" height="28.3465" class="st4"/>
			<text x="27.87" y="714.05" class="st3" v:langID="2052"><v:paragraph v:horizAlign="1"/><v:tabList/>X30</text>		</g>
		<g id="shape45-120" v:mID="45" v:groupContext="shape" v:layerMember="0" transform="translate(384.213,-645.449)">
			<title>Shape.45</title>
			<desc>返回值第一个参数</desc>
			<v:textBlock v:margins="rect(0,0,0,0)"/>
			<v:textRect cx="48.4252" cy="711.496" width="96.86" height="28.3465"/>
			<rect x="0" y="697.323" width="96.8504" height="28.3465" class="st4"/>
			<text x="10.16" y="714.08" class="st5" v:langID="2052"><v:paragraph v:horizAlign="1"/><v:tabList/>返回值，第一个参数</text>		</g>
		<g id="shape46-123" v:mID="46" v:groupContext="shape" v:layerMember="0" transform="translate(366.803,-598.12)">
			<title>Shape.46</title>
			<desc>第二个参数</desc>
			<v:textBlock v:margins="rect(0,0,0,0)"/>
			<v:textRect cx="48.4252" cy="711.496" width="96.86" height="28.3465"/>
			<rect x="0" y="697.323" width="96.8504" height="28.3465" class="st4"/>
			<text x="27.17" y="714.08" class="st5" v:langID="2052"><v:paragraph v:horizAlign="1"/><v:tabList/>第二个参数</text>		</g>
		<g id="shape47-126" v:mID="47" v:groupContext="shape" v:layerMember="0" transform="translate(1005.19,109.488) rotate(90)">
			<title>Shape.47</title>
			<desc>...</desc>
			<v:textBlock v:margins="rect(0,0,0,0)"/>
			<v:textRect cx="35.4331" cy="711.496" width="70.87" height="28.3465"/>
			<rect x="0" y="697.323" width="70.8661" height="28.3465" class="st4"/>
			<text x="31.89" y="714.05" class="st3" v:langID="2052"><v:paragraph v:horizAlign="1"/><v:tabList/>...</text>		</g>
		<g id="shape48-129" v:mID="48" v:groupContext="shape" v:layerMember="0" transform="translate(366.803,-536.408)">
			<title>Shape.48</title>
			<desc>第八个参数</desc>
			<v:textBlock v:margins="rect(0,0,0,0)"/>
			<v:textRect cx="48.4252" cy="711.496" width="96.86" height="28.3465"/>
			<rect x="0" y="697.323" width="96.8504" height="28.3465" class="st4"/>
			<text x="27.17" y="714.08" class="st5" v:langID="2052"><v:paragraph v:horizAlign="1"/><v:tabList/>第八个参数</text>		</g>
		<g id="shape49-132" v:mID="49" v:groupContext="shape" v:layerMember="0" transform="translate(366.803,-487.476)">
			<title>Shape.49</title>
			<desc>系统调用号</desc>
			<v:textBlock v:margins="rect(0,0,0,0)"/>
			<v:textRect cx="48.4252" cy="711.496" width="96.86" height="28.3465"/>
			<rect x="0" y="697.323" width="96.8504" height="28.3465" class="st4"/>
			<text x="27.17" y="714.08" class="st5" v:langID="2052"><v:paragraph v:horizAlign="1"/><v:tabList/>系统调用号</text>		</g>
		<g id="shape50-135" v:mID="50" v:groupContext="shape" v:layerMember="0" transform="translate(373.89,-390.236)">
			<title>备注</title>
			<desc>临时寄存器</desc>
			<v:textBlock v:margins="rect(0,0,0,0)"/>
			<v:textRect cx="52.0866" cy="694.665" width="65.91" height="62.0079"/>
			<path d="M0 725.67 C4.25 725.67 6.38 723.6 6.38 719.47 L6.38 700.87 C6.38 696.73 9.45 694.67 15.59 694.67 C9.45 694.67
						 6.38 692.6 6.38 688.46 L6.38 669.86 C6.38 665.73 4.25 663.66 0 663.66" class="st6"/>
			<text x="19.13" y="697.25" class="st5" v:langID="2052"><v:paragraph/><v:tabList/>临时寄存器</text>		</g>
		<g id="shape51-139" v:mID="51" v:groupContext="shape" v:layerMember="0" transform="translate(373.89,-390.236)">
			<title>Shape.51</title>
			<rect x="0" y="663.661" width="85.0394" height="62.0079" class="st4"/>
		</g>
		<g id="shape52-141" v:mID="52" v:groupContext="shape" v:layerMember="0" transform="translate(373.89,-245.477)">
			<title>Shape.52</title>
			<desc>平台相关</desc>
			<v:textBlock v:margins="rect(0,0,0,0)"/>
			<v:textRect cx="52.0866" cy="676.063" width="65.91" height="99.2126"/>
			<path d="M0 725.67 C4.25 725.67 6.38 723.54 6.38 719.29 L6.38 682.44 C6.38 678.19 9.45 676.06 15.59 676.06 C9.45 676.06
						 6.38 673.94 6.38 669.69 L6.38 632.83 C6.38 628.58 4.25 626.46 0 626.46" class="st6"/>
			<text x="19.13" y="678.65" class="st5" v:langID="2052"><v:paragraph/><v:tabList/>平台相关</text>		</g>
		<g id="shape53-145" v:mID="53" v:groupContext="shape" v:layerMember="0" transform="translate(373.89,-245.477)">
			<title>Shape.53</title>
			<rect x="0" y="626.457" width="85.0394" height="99.2126" class="st4"/>
		</g>
		<g id="shape54-147" v:mID="54" v:groupContext="shape" v:layerMember="0" transform="translate(373.89,-136.89)">
			<title>Shape.54</title>
			<desc>被调用者保存</desc>
			<v:textBlock v:margins="rect(0,0,0,0)"/>
			<v:textRect cx="52.0866" cy="695.598" width="65.91" height="60.1417"/>
			<path d="M0 725.67 C4.25 725.67 6.38 723.66 6.38 719.66 L6.38 701.61 C6.38 697.6 9.45 695.6 15.59 695.6 C9.45 695.6 6.38
						 693.59 6.38 689.58 L6.38 671.54 C6.38 667.53 4.25 665.53 0 665.53" class="st6"/>
			<text x="19.13" y="698.18" class="st5" v:langID="2052"><v:paragraph/><v:tabList/>被调用者保存</text>		</g>
		<g id="shape55-151" v:mID="55" v:groupContext="shape" v:layerMember="0" transform="translate(373.89,-136.89)">
			<title>Shape.55</title>
			<rect x="0" y="665.528" width="85.0394" height="60.1417" class="st4"/>
		</g>
		<g id="shape56-153" v:mID="56" v:groupContext="shape" v:layerMember="0" transform="translate(360.898,-74.2593)">
			<title>Shape.56</title>
			<desc>栈指针</desc>
			<v:textBlock v:margins="rect(0,0,0,0)"/>
			<v:textRect cx="48.4252" cy="711.496" width="96.86" height="28.3465"/>
			<rect x="0" y="697.323" width="96.8504" height="28.3465" class="st4"/>
			<text x="35.67" y="714.08" class="st5" v:langID="2052"><v:paragraph v:horizAlign="1"/><v:tabList/>栈指针</text>		</g>
		<g id="shape57-156" v:mID="57" v:groupContext="shape" v:layerMember="0" transform="translate(367.984,-21.1097)">
			<title>Shape.57</title>
			<desc>链接寄存器</desc>
			<v:textBlock v:margins="rect(0,0,0,0)"/>
			<v:textRect cx="48.4252" cy="711.496" width="96.86" height="28.3465"/>
			<rect x="0" y="697.323" width="96.8504" height="28.3465" class="st4"/>
			<text x="27.17" y="714.08" class="st5" v:langID="2052"><v:paragraph v:horizAlign="1"/><v:tabList/>链接寄存器</text>		</g>
	</g>
</svg>
